<?xml version="1.0" encoding="iso-8859-1"?>
<!-- Generator: Adobe Illustrator 19.0.0, SVG Export Plug-In . SVG Version: 6.00 Build 0)  -->
<svg xmlns="http://www.w3.org/2000/svg" xmlns:xlink="http://www.w3.org/1999/xlink" version="1.1" id="Layer_1" x="0px" y="0px" viewBox="0 0 460.08 460.08" style="enable-background:new 0 0 460.08 460.08;" xml:space="preserve" width="512" height="512">
<g>
	<rect x="10.301" y="363.325" style="fill:#0FBC30;" width="439.478" height="25.499"/>
	<polygon style="fill:#FFD039;" points="406.613,312.659 406.613,294.379 419.393,283.389 432.183,294.379 432.183,360.329    406.613,360.329  "/>
	<polygon style="fill:#FFD039;" points="384.513,312.659 384.513,360.329 358.943,360.329 358.943,312.659 358.943,294.379    371.733,283.389 384.513,294.379  "/>
	<polygon style="fill:#FFD039;" points="311.273,312.659 311.273,294.379 324.063,283.389 336.843,294.379 336.843,312.659    336.843,360.329 311.273,360.329  "/>
	<polygon style="fill:#FFD039;" points="289.183,312.659 289.183,360.329 263.613,360.329 263.613,294.379 276.393,283.389    289.183,294.379  "/>
	<path style="fill:#0FBC30;" d="M429.733,153.099v24.72c0,22.6-9.16,43.06-23.97,57.87c-6.61,6.61-14.34,12.09-22.88,16.13   c-3.81,1.81-7.77,3.32-11.88,4.53l-0.5-18.69c-6.94,3.12-14.39,4.69-21.85,4.69c-6.32,0-12.65-1.13-18.69-3.39l-3.46-1.3   l-1.01,18.9c-34.3-9.75-59.43-41.31-59.43-78.74v-24.72c0-12.52,2.81-24.39,7.84-35c13.12-27.69,41.32-46.84,74-46.84   C393.093,71.259,429.733,107.898,429.733,153.099z"/>
	<path style="fill:#07A521;" d="M390.733,192.099v24.72c0,12.52-2.81,24.39-7.85,35c-3.81,1.81-7.77,3.32-11.88,4.53l-0.5-18.69   c-6.94,3.12-14.39,4.69-21.85,4.69c-6.32,0-12.65-1.13-18.69-3.39l-3.46-1.3l-1.01,18.9c-34.3-9.75-59.43-41.31-59.43-78.74v-24.72   c0-12.52,2.81-24.39,7.84-35c10.61-5.03,22.48-7.84,35-7.84C354.093,110.259,390.733,146.898,390.733,192.099z"/>
	<path style="fill:#9B6121;" d="M371.003,256.349l0.73,27.04l-12.79,10.99v18.28h-22.09h-0.01v-18.28l-12.78-10.99l1.43-26.83   l1.01-18.9l3.46,1.3c6.04,2.26,12.37,3.39,18.69,3.39c7.46,0,14.91-1.57,21.85-4.69L371.003,256.349z"/>
	<polygon style="fill:#9B6121;" points="358.943,312.659 358.943,360.329 336.843,360.329 336.843,312.659 336.853,312.659  "/>
	<polygon style="fill:#ED2E2E;" points="191.863,156.929 244.273,231.659 230.273,231.659 140.503,231.659 139.443,231.659  "/>
	<polygon style="fill:#FFD039;" points="230.273,231.659 230.273,359.659 204.273,359.659 204.273,273.819 166.503,273.819    166.503,359.659 140.503,359.659 140.503,233.659 140.503,231.659  "/>
	<rect x="166.503" y="273.819" style="fill:#ED2E2E;" width="37.77" height="85.84"/>
	<polygon style="fill:#D82525;" points="191.863,156.929 139.443,231.659 27.503,231.659 7.503,231.659 59.913,156.929    84.503,156.929 84.503,190.659 111.503,190.659 135.153,156.919 135.163,156.929  "/>
	<path style="fill:#EAB932;" d="M140.503,233.659v126h-113v-128h111.94h1.06V233.659z M112.583,318.659v-45h-55.08v45H112.583z"/>
	<polygon style="fill:#CCCCCC;" points="137.713,125.659 137.713,153.289 137.703,153.289 135.153,156.919 111.503,190.659    111.503,125.659  "/>
	<rect x="57.503" y="273.659" style="fill:#3B9DFF;" width="55.08" height="45"/>
	<polygon style="fill:#999999;" points="111.503,125.659 111.503,190.659 84.503,190.659 84.503,156.929 84.503,125.659    110.713,125.659  "/>
	<g>
		<path style="fill:#333333;" d="M452.58,381.324H13.102c-4.142,0-7.5,3.358-7.5,7.5s3.358,7.5,7.5,7.5H452.58    c4.142,0,7.5-3.358,7.5-7.5S456.722,381.324,452.58,381.324z"/>
		<path style="fill:#333333;" d="M57.5,326.822h55.078c4.142,0,7.5-3.358,7.5-7.5v-45c0-4.142-3.358-7.5-7.5-7.5H57.5    c-4.142,0-7.5,3.358-7.5,7.5v45C50,323.464,53.358,326.822,57.5,326.822z M65,281.822h40.078v30H65V281.822z"/>
		<path style="fill:#333333;" d="M20,239.822v113.003h-6.898c-4.142,0-7.5,3.358-7.5,7.5s3.358,7.5,7.5,7.5H452.58    c4.142,0,7.5-3.358,7.5-7.5s-3.358-7.5-7.5-7.5h-12.899v-58.447c0-2.186-0.954-4.263-2.611-5.688L424.285,277.7    c-2.812-2.417-6.967-2.417-9.778,0l-12.785,10.991c-1.657,1.425-2.611,3.502-2.611,5.688v10.776h-7.096v-10.776    c0-2.186-0.954-4.263-2.611-5.688l-10.266-8.826l-0.488-18.156c12.116-4.45,23.233-11.539,32.415-20.721    c16.874-16.874,26.167-39.309,26.167-63.173v-24.72c0-49.262-40.073-89.34-89.33-89.34c-49.262,0-89.34,40.078-89.34,89.34v24.72    c0,37.723,24.037,71.464,59.137,84.089l-0.953,17.885l-10.356,8.903c-1.657,1.425-2.611,3.502-2.611,5.688v10.776h-7.097v-10.776    c0-2.186-0.954-4.263-2.611-5.688L281.285,277.7c-2.812-2.417-6.967-2.417-9.778,0l-12.785,10.991    c-1.657,1.425-2.611,3.502-2.611,5.688v58.447H237.77V239.822h6.5c2.798,0,5.363-1.557,6.654-4.04    c1.291-2.482,1.093-5.476-0.513-7.767L198,153.284c-1.404-2.001-3.696-3.193-6.141-3.193c-0.008,0-0.016,0.001-0.024,0.001H145.21    v-23.77c0-4.142-3.358-7.5-7.5-7.5H84.5c-4.142,0-7.5,3.358-7.5,7.5v23.77H59.91c-2.445,0-4.736,1.192-6.141,3.193l-52.41,74.73    c-1.606,2.291-1.804,5.285-0.513,7.767c1.291,2.482,3.856,4.04,6.654,4.04H20z M133.003,239.822v113H35v-113H133.003z     M196.772,352.822h-22.773v-70.836h22.773V352.822z M303.777,352.826h-7.097v-10.67h7.097V352.826z M318.777,352.826v-55.004    l5.285-4.543l5.285,4.543v55.004H318.777z M344.348,320.155h7.096v7h-7.096V320.155z M344.348,342.155h7.096v10.67h-7.096V342.155    z M354.055,288.691c-1.657,1.425-2.611,3.502-2.611,5.688v10.776h-7.096v-10.776c0-2.186-0.954-4.263-2.611-5.688l-9.989-8.587    l1.715-32.184c9.83,2.558,20.029,2.601,29.814,0.153l0.859,31.951L354.055,288.691z M366.444,352.826v-55.004l5.285-4.543    l5.285,4.543v55.004H366.444z M399.11,352.826h-7.096v-10.67h7.096V352.826z M414.11,297.822l5.285-4.543l5.285,4.543v55.004    h-10.57V297.822z M399.11,320.155v7h-7.096v-7H399.11z M273.56,177.815v-24.72c0-40.991,33.349-74.34,74.34-74.34    c40.986,0,74.33,33.349,74.33,74.34v24.72c0,19.857-7.732,38.526-21.773,52.566c-6.43,6.43-13.999,11.621-22.238,15.313    l-0.221-8.242c-0.067-2.508-1.385-4.816-3.51-6.15c-2.125-1.334-4.777-1.517-7.065-0.487c-11.08,4.986-23.448,5.382-34.824,1.116    l-3.465-1.299c-2.236-0.838-4.74-0.563-6.74,0.747c-2,1.308-3.256,3.491-3.383,5.876l-0.473,8.873    C291.646,234.534,273.56,207.671,273.56,177.815z M303.777,320.155v7h-7.097v-7H303.777z M271.11,297.822l5.285-4.543l5.285,4.543    v55.004h-10.57V297.822z M222.77,352.822h-10.998v-78.336c0-4.142-3.358-7.5-7.5-7.5h-37.773c-4.142,0-7.5,3.358-7.5,7.5v78.336    h-10.995v-113h74.767V352.822z M229.849,224.822h-75.981l37.991-54.169L229.849,224.822z M130.21,151.582L119,167.566v-33.744    h11.21V151.582z M92,133.822h12v50H92V133.822z M63.811,165.092H77v26.23c0,4.142,3.358,7.5,7.5,7.5h27    c2.539,0,4.78-1.265,6.137-3.196l0.004,0.003l21.416-30.537h38.38l-41.89,59.73H21.921L63.811,165.092z"/>
		<circle style="fill:#333333;" cx="384.503" cy="206.659" r="7.5"/>
		<circle style="fill:#333333;" cx="302.503" cy="214.659" r="7.5"/>
		<circle style="fill:#333333;" cx="311.503" cy="145.659" r="7.5"/>
		<circle style="fill:#333333;" cx="346.503" cy="173.659" r="7.5"/>
		<circle style="fill:#333333;" cx="386.503" cy="136.659" r="7.5"/>
		<circle style="fill:#333333;" cx="347.503" cy="106.659" r="7.5"/>
	</g>
</g>















</svg>
